# MagicaVoxel @ Ephtracy

# group
o 

# material
mtllib cakestreet-0.mtl
usemtl palette

# normals
vn -1 0 0
vn 1 0 0
vn 0 0 1
vn 0 0 -1
vn 0 -1 0
vn 0 1 0

# texcoords
vt 0.00195313 0.5
vt 0.0332031 0.5
vt 0.0488281 0.5

# verts
v -6.8 0 10
v -6.8 0 -10
v -6.8 0.3 10
v -6.8 0.3 -10
v -6.8 0.5 10
v -6.8 0.5 -10
v -6.8 0.7 10
v -6.8 0.7 -10
v 4.7 0.1 10
v 4.7 0.1 -10
v 4.7 0.3 10
v 4.7 0.3 -10
v 4.7 0.5 10
v 4.7 0.5 -10
v 4.7 0.7 10
v 4.7 0.7 -10
v -4.7 0.1 10
v -4.7 0.1 -10
v -4.7 0.3 10
v -4.7 0.3 -10
v -4.7 0.5 10
v -4.7 0.5 -10
v -4.7 0.7 10
v -4.7 0.7 -10
v 6.8 0 10
v 6.8 0 -10
v 6.8 0.3 10
v 6.8 0.3 -10
v 6.8 0.5 10
v 6.8 0.5 -10
v 6.8 0.7 10
v 6.8 0.7 -10
v -6.8 0 10
v -6.8 0.3 10
v -6.8 0.5 10
v -6.8 0.7 10
v -4.7 0.1 10
v -4.7 0.3 10
v -4.7 0.5 10
v -4.7 0.7 10
v 4.7 0.1 10
v 4.7 0.3 10
v 4.7 0.5 10
v 4.7 0.7 10
v 6.8 0 10
v 6.8 0.3 10
v 6.8 0.5 10
v 6.8 0.7 10
v -6.8 0 -10
v -6.8 0.3 -10
v -6.8 0.5 -10
v -6.8 0.7 -10
v -4.7 0.1 -10
v -4.7 0.3 -10
v -4.7 0.5 -10
v -4.7 0.7 -10
v 4.7 0.1 -10
v 4.7 0.3 -10
v 4.7 0.5 -10
v 4.7 0.7 -10
v 6.8 0 -10
v 6.8 0.3 -10
v 6.8 0.5 -10
v 6.8 0.7 -10
v -6.8 0 10
v 6.8 0 10
v -6.8 0 -10
v 6.8 0 -10
v -4.7 0.1 10
v 4.7 0.1 10
v -4.7 0.1 -10
v 4.7 0.1 -10
v -6.8 0.7 10
v -4.7 0.7 10
v 4.7 0.7 10
v 6.8 0.7 10
v -6.8 0.7 -10
v -4.7 0.7 -10
v 4.7 0.7 -10
v 6.8 0.7 -10

# faces
f 3/2/1 2/2/1 1/2/1
f 4/2/1 2/2/1 3/2/1
f 5/1/1 4/1/1 3/1/1
f 6/1/1 4/1/1 5/1/1
f 7/3/1 6/3/1 5/3/1
f 8/3/1 6/3/1 7/3/1
f 11/2/1 10/2/1 9/2/1
f 12/2/1 10/2/1 11/2/1
f 13/1/1 12/1/1 11/1/1
f 14/1/1 12/1/1 13/1/1
f 15/3/1 14/3/1 13/3/1
f 16/3/1 14/3/1 15/3/1
f 17/2/2 18/2/2 19/2/2
f 19/2/2 18/2/2 20/2/2
f 19/1/2 20/1/2 21/1/2
f 21/1/2 20/1/2 22/1/2
f 21/3/2 22/3/2 23/3/2
f 23/3/2 22/3/2 24/3/2
f 25/2/2 26/2/2 27/2/2
f 27/2/2 26/2/2 28/2/2
f 27/1/2 28/1/2 29/1/2
f 29/1/2 28/1/2 30/1/2
f 29/3/2 30/3/2 31/3/2
f 31/3/2 30/3/2 32/3/2
f 37/2/3 34/2/3 33/2/3
f 38/1/3 35/1/3 34/1/3
f 38/2/3 34/2/3 37/2/3
f 39/3/3 36/3/3 35/3/3
f 39/1/3 35/1/3 38/1/3
f 40/3/3 36/3/3 39/3/3
f 41/2/3 37/2/3 33/2/3
f 45/2/3 41/2/3 33/2/3
f 45/2/3 42/2/3 41/2/3
f 46/1/3 43/1/3 42/1/3
f 46/2/3 42/2/3 45/2/3
f 47/3/3 44/3/3 43/3/3
f 47/1/3 43/1/3 46/1/3
f 48/3/3 44/3/3 47/3/3
f 49/2/4 50/2/4 53/2/4
f 50/1/4 51/1/4 54/1/4
f 53/2/4 50/2/4 54/2/4
f 51/3/4 52/3/4 55/3/4
f 54/1/4 51/1/4 55/1/4
f 55/3/4 52/3/4 56/3/4
f 49/2/4 53/2/4 57/2/4
f 49/2/4 57/2/4 61/2/4
f 57/2/4 58/2/4 61/2/4
f 58/1/4 59/1/4 62/1/4
f 61/2/4 58/2/4 62/2/4
f 59/3/4 60/3/4 63/3/4
f 62/1/4 59/1/4 63/1/4
f 63/3/4 60/3/4 64/3/4
f 67/2/5 66/2/5 65/2/5
f 68/2/5 66/2/5 67/2/5
f 69/2/6 70/2/6 71/2/6
f 71/2/6 70/2/6 72/2/6
f 73/3/6 74/3/6 77/3/6
f 77/3/6 74/3/6 78/3/6
f 75/3/6 76/3/6 79/3/6
f 79/3/6 76/3/6 80/3/6
