# MagicaVoxel @ Ephtracy

# group
o 

# material
mtllib testobj.mtl
usemtl palette

# normals
vn -1 0 0
vn 1 0 0
vn 0 0 1
vn 0 0 -1
vn 0 -1 0
vn 0 1 0

# texcoords
vt 0.232422 0.5
vt 0.529297 0.5
vt 0.533203 0.5

# verts
v -10 0 10
v -10 0 -10
v -10 0.5 10
v -10 0.5 -10
v 5.9 0.1 10
v 5.9 0.1 -10
v 5.9 0.5 10
v 5.9 0.5 -10
v -5.9 0.1 10
v -5.9 0.1 -10
v -5.9 0.5 10
v -5.9 0.5 -10
v 10 0 10
v 10 0 -10
v 10 0.5 10
v 10 0.5 -10
v -10 0 10
v -10 0.5 10
v -6.8 0 10
v -6.8 0.5 10
v -6 0 10
v -6 0.1 10
v -5.9 0.1 10
v -5.9 0.5 10
v 5.9 0.1 10
v 5.9 0.5 10
v 6 0 10
v 6 0.1 10
v 6.8 0 10
v 6.8 0.5 10
v 10 0 10
v 10 0.5 10
v -10 0 -10
v -10 0.5 -10
v -6.8 0 -10
v -6.8 0.5 -10
v -6 0 -10
v -6 0.1 -10
v -5.9 0.1 -10
v -5.9 0.5 -10
v 5.9 0.1 -10
v 5.9 0.5 -10
v 6 0 -10
v 6 0.1 -10
v 6.8 0 -10
v 6.8 0.5 -10
v 10 0 -10
v 10 0.5 -10
v -10 0 10
v -6.8 0 10
v -6 0 10
v 6 0 10
v 6.8 0 10
v 10 0 10
v -10 0 -10
v -6.8 0 -10
v -6 0 -10
v 6 0 -10
v 6.8 0 -10
v 10 0 -10
v -5.9 0.1 10
v 5.9 0.1 10
v -5.9 0.1 -10
v 5.9 0.1 -10
v -10 0.5 10
v -6.8 0.5 10
v -5.9 0.5 10
v 5.9 0.5 10
v 6.8 0.5 10
v 10 0.5 10
v -10 0.5 -10
v -6.8 0.5 -10
v -5.9 0.5 -10
v 5.9 0.5 -10
v 6.8 0.5 -10
v 10 0.5 -10

# faces
f 3/3/1 2/3/1 1/3/1
f 4/3/1 2/3/1 3/3/1
f 7/1/1 6/1/1 5/1/1
f 8/1/1 6/1/1 7/1/1
f 9/1/2 10/1/2 11/1/2
f 11/1/2 10/1/2 12/1/2
f 13/3/2 14/3/2 15/3/2
f 15/3/2 14/3/2 16/3/2
f 19/3/3 18/3/3 17/3/3
f 20/3/3 18/3/3 19/3/3
f 21/1/3 20/1/3 19/1/3
f 22/1/3 20/1/3 21/1/3
f 23/2/3 22/2/3 21/2/3
f 23/1/3 20/1/3 22/1/3
f 24/1/3 20/1/3 23/1/3
f 25/2/3 23/2/3 21/2/3
f 27/2/3 25/2/3 21/2/3
f 28/1/3 26/1/3 25/1/3
f 28/2/3 25/2/3 27/2/3
f 29/1/3 28/1/3 27/1/3
f 30/1/3 26/1/3 28/1/3
f 30/1/3 28/1/3 29/1/3
f 31/3/3 30/3/3 29/3/3
f 32/3/3 30/3/3 31/3/3
f 33/3/4 34/3/4 35/3/4
f 35/3/4 34/3/4 36/3/4
f 35/1/4 36/1/4 37/1/4
f 37/1/4 36/1/4 38/1/4
f 37/2/4 38/2/4 39/2/4
f 38/1/4 36/1/4 39/1/4
f 39/1/4 36/1/4 40/1/4
f 37/2/4 39/2/4 41/2/4
f 37/2/4 41/2/4 43/2/4
f 41/1/4 42/1/4 44/1/4
f 43/2/4 41/2/4 44/2/4
f 43/1/4 44/1/4 45/1/4
f 44/1/4 42/1/4 46/1/4
f 45/1/4 44/1/4 46/1/4
f 45/3/4 46/3/4 47/3/4
f 47/3/4 46/3/4 48/3/4
f 55/3/5 50/3/5 49/3/5
f 56/1/5 51/1/5 50/1/5
f 56/3/5 50/3/5 55/3/5
f 57/2/5 52/2/5 51/2/5
f 57/1/5 51/1/5 56/1/5
f 58/1/5 53/1/5 52/1/5
f 58/2/5 52/2/5 57/2/5
f 59/3/5 54/3/5 53/3/5
f 59/1/5 53/1/5 58/1/5
f 60/3/5 54/3/5 59/3/5
f 61/2/6 62/2/6 63/2/6
f 63/2/6 62/2/6 64/2/6
f 65/3/6 66/3/6 71/3/6
f 66/1/6 67/1/6 72/1/6
f 71/3/6 66/3/6 72/3/6
f 72/1/6 67/1/6 73/1/6
f 68/1/6 69/1/6 74/1/6
f 69/3/6 70/3/6 75/3/6
f 74/1/6 69/1/6 75/1/6
f 75/3/6 70/3/6 76/3/6
