{
  "accessors": [
    {
      "bufferView": 2,
      "componentType": 5126,
      "count": 208,
      "max": [
        0.06248011812567711,
        0.009358854964375496,
        0.06259739398956299
      ],
      "min": [
        -0.06270898878574371,
        -0.0065964628010988235,
        -0.06247052177786827
      ],
      "type": "VEC3"
    },
    {
      "bufferView": 2,
      "byteOffset": 2496,
      "componentType": 5126,
      "count": 208,
      "max": [
        0.9576186537742615,
        0.9996411204338074,
        0.9712883830070496
      ],
      "min": [
        -0.9789277911186218,
        -0.7727850079536438,
        -0.9534090161323547
      ],
      "type": "VEC3"
    },
    {
      "bufferView": 1,
      "componentType": 5126,
      "count": 208,
      "max": [
        0.9916269779205322,
        0.9886046648025513
      ],
      "min": [
        5.587935447692871e-08,
        0.0
      ],
      "type": "VEC2"
    },
    {
      "bufferView": 0,
      "componentType": 5125,
      "count": 840,
      "type": "SCALAR"
    },
    {
      "bufferView": 2,
      "byteOffset": 4992,
      "componentType": 5126,
      "count": 50,
      "max": [
        0.0024698327761143446,
        0.00038067743298597634,
        0.002469825092703104
      ],
      "min": [
        -0.002469823230057955,
        -0.0003806855820585042,
        -0.002469831146299839
      ],
      "type": "VEC3"
    },
    {
      "bufferView": 2,
      "byteOffset": 5592,
      "componentType": 5126,
      "count": 50,
      "max": [
        1.0,
        0.6657193303108215,
        1.0
      ],
      "min": [
        -1.0,
        -3.9127517226233977e-08,
        -1.0
      ],
      "type": "VEC3"
    },
    {
      "bufferView": 1,
      "byteOffset": 1664,
      "componentType": 5126,
      "count": 50,
      "max": [
        1.0,
        0.9900000095367432
      ],
      "min": [
        0.0,
        0.0
      ],
      "type": "VEC2"
    },
    {
      "bufferView": 0,
      "byteOffset": 3360,
      "componentType": 5125,
      "count": 138,
      "type": "SCALAR"
    },
    {
      "bufferView": 2,
      "byteOffset": 6192,
      "componentType": 5126,
      "count": 200,
      "max": [
        0.057995326817035675,
        -0.00979679822921753,
        -0.009930887259542942
      ],
      "min": [
        -0.012446334585547447,
        -0.06193171441555023,
        -0.07942770421504974
      ],
      "type": "VEC3"
    },
    {
      "bufferView": 2,
      "byteOffset": 8592,
      "componentType": 5126,
      "count": 200,
      "max": [
        0.9995367527008057,
        0.9934742450714111,
        0.8400703072547913
      ],
      "min": [
        -0.9995367527008057,
        -0.6825333833694458,
        -0.9986234903335571
      ],
      "type": "VEC3"
    },
    {
      "bufferView": 1,
      "byteOffset": 2064,
      "componentType": 5126,
      "count": 200,
      "max": [
        1.0,
        0.9900000095367432
      ],
      "min": [
        0.0,
        0.0
      ],
      "type": "VEC2"
    },
    {
      "bufferView": 0,
      "byteOffset": 3912,
      "componentType": 5125,
      "count": 552,
      "type": "SCALAR"
    },
    {
      "bufferView": 2,
      "byteOffset": 10992,
      "componentType": 5126,
      "count": 50,
      "max": [
        0.08137404918670654,
        -0.0398334339261055,
        -0.038188837468624115
      ],
      "min": [
        0.07348451018333435,
        -0.048071276396512985,
        -0.04650359973311424
      ],
      "type": "VEC3"
    },
    {
      "bufferView": 2,
      "byteOffset": 11592,
      "componentType": 5126,
      "count": 50,
      "max": [
        0.9941635727882385,
        0.9876084327697754,
        0.8354786038398743
      ],
      "min": [
        -0.7770766615867615,
        -0.8255012631416321,
        -0.9887185096740723
      ],
      "type": "VEC3"
    },
    {
      "bufferView": 1,
      "byteOffset": 3664,
      "componentType": 5126,
      "count": 50,
      "max": [
        1.0,
        0.9900000095367432
      ],
      "min": [
        0.0,
        0.0
      ],
      "type": "VEC2"
    },
    {
      "bufferView": 0,
      "byteOffset": 6120,
      "componentType": 5125,
      "count": 138,
      "type": "SCALAR"
    },
    {
      "bufferView": 2,
      "byteOffset": 12192,
      "componentType": 5126,
      "count": 50,
      "max": [
        -0.011475685983896255,
        -0.04327360913157463,
        -0.0700511634349823
      ],
      "min": [
        -0.020232655107975006,
        -0.05047956109046936,
        -0.07698017358779907
      ],
      "type": "VEC3"
    },
    {
      "bufferView": 2,
      "byteOffset": 12792,
      "componentType": 5126,
      "count": 50,
      "max": [
        0.9953218102455139,
        0.997681736946106,
        0.6880489587783813
      ],
      "min": [
        -0.9953218102455139,
        -0.7256379127502441,
        -0.993981122970581
      ],
      "type": "VEC3"
    },
    {
      "bufferView": 1,
      "byteOffset": 4064,
      "componentType": 5126,
      "count": 50,
      "max": [
        1.0,
        0.9900000095367432
      ],
      "min": [
        0.0,
        0.0
      ],
      "type": "VEC2"
    },
    {
      "bufferView": 0,
      "byteOffset": 6672,
      "componentType": 5125,
      "count": 138,
      "type": "SCALAR"
    },
    {
      "bufferView": 3,
      "componentType": 5126,
      "count": 27,
      "max": [
        1.0833333730697632
      ],
      "min": [
        0.0
      ],
      "type": "SCALAR"
    },
    {
      "bufferView": 4,
      "componentType": 5126,
      "count": 27,
      "max": [
        -1.1401009913925009e-08,
        0.9583474397659302,
        0.2589229643344879,
        0.965386152267456
      ],
      "min": [
        -0.26082468032836914,
        -0.965386152267456,
        -0.26082468032836914,
        4.219837279606509e-08
      ],
      "type": "VEC4"
    }
  ],
  "animations": [
    {
      "channels": [
        {
          "sampler": 0,
          "target": {
            "node": 3,
            "path": "rotation"
          }
        }
      ],
      "name": "CylinderAction",
      "samplers": [
        {
          "input": 20,
          "interpolation": "LINEAR",
          "output": 21
        }
      ]
    }
  ],
  "asset": {
    "extras": {
      "author": "alexdelker (https://sketchfab.com/alexdelker)",
      "license": "CC-BY-4.0 (http://creativecommons.org/licenses/by/4.0/)",
      "source": "https://sketchfab.com/3d-models/low-poly-cookie-524f91d64a3045f4abd769e3411ff421",
      "title": "Low Poly Cookie"
    },
    "generator": "Sketchfab-12.65.0",
    "version": "2.0"
  },
  "bufferViews": [
    {
      "buffer": 0,
      "byteLength": 7224,
      "name": "floatBufferViews",
      "target": 34963
    },
    {
      "buffer": 0,
      "byteLength": 4464,
      "byteOffset": 7224,
      "byteStride": 8,
      "name": "floatBufferViews",
      "target": 34962
    },
    {
      "buffer": 0,
      "byteLength": 13392,
      "byteOffset": 11688,
      "byteStride": 12,
      "name": "floatBufferViews",
      "target": 34962
    },
    {
      "buffer": 0,
      "byteLength": 108,
      "byteOffset": 25080,
      "name": "floatBufferViews"
    },
    {
      "buffer": 0,
      "byteLength": 432,
      "byteOffset": 25188,
      "byteStride": 16,
      "name": "floatBufferViews"
    }
  ],
  "buffers": [
    {
      "byteLength": 25620,
      "uri": "scene.bin"
    }
  ],
  "images": [
    {
      "uri": "textures/Material.001_baseColor.png"
    }
  ],
  "materials": [
    {
      "doubleSided": true,
      "emissiveFactor": [
        1.0,
        1.0,
        1.0
      ],
      "emissiveTexture": {
        "index": 0
      },
      "name": "Material.001",
      "pbrMetallicRoughness": {
        "baseColorTexture": {
          "index": 0
        }
      }
    },
    {
      "doubleSided": true,
      "emissiveFactor": [
        0.0684782,
        0.012983000000000001,
        0.010329800000000002
      ],
      "name": "Chocolate.004",
      "pbrMetallicRoughness": {
        "baseColorFactor": [
          0.16460807970228097,
          0.07997629097011315,
          0.07997629097011315,
          1.0
        ]
      }
    },
    {
      "doubleSided": true,
      "emissiveFactor": [
        0.0684782,
        0.012983000000000001,
        0.010329800000000002
      ],
      "name": "Chocolate.001",
      "pbrMetallicRoughness": {
        "baseColorFactor": [
          0.17901507171454986,
          0.10804895149991167,
          0.10804895149991167,
          1.0
        ]
      }
    },
    {
      "doubleSided": true,
      "emissiveFactor": [
        0.0684782,
        0.012983000000000001,
        0.010329800000000002
      ],
      "name": "Chocolate.002",
      "pbrMetallicRoughness": {
        "baseColorFactor": [
          0.10829235995947611,
          0.06269825210059178,
          0.06269825210059178,
          1.0
        ]
      }
    },
    {
      "doubleSided": true,
      "emissiveFactor": [
        0.0684782,
        0.012983000000000001,
        0.010329800000000002
      ],
      "name": "Chocolate.003",
      "pbrMetallicRoughness": {
        "baseColorFactor": [
          0.16111610572391852,
          0.09640844076719636,
          0.09640844076719636,
          1.0
        ]
      }
    }
  ],
  "meshes": [
    {
      "name": "Object_0",
      "primitives": [
        {
          "attributes": {
            "NORMAL": 1,
            "POSITION": 0,
            "TEXCOORD_0": 2
          },
          "indices": 3,
          "material": 0,
          "mode": 4
        }
      ]
    },
    {
      "name": "Object_1",
      "primitives": [
        {
          "attributes": {
            "NORMAL": 5,
            "POSITION": 4,
            "TEXCOORD_0": 6
          },
          "indices": 7,
          "material": 1,
          "mode": 4
        }
      ]
    },
    {
      "name": "Object_2",
      "primitives": [
        {
          "attributes": {
            "NORMAL": 9,
            "POSITION": 8,
            "TEXCOORD_0": 10
          },
          "indices": 11,
          "material": 2,
          "mode": 4
        }
      ]
    },
    {
      "name": "Object_3",
      "primitives": [
        {
          "attributes": {
            "NORMAL": 13,
            "POSITION": 12,
            "TEXCOORD_0": 14
          },
          "indices": 15,
          "material": 3,
          "mode": 4
        }
      ]
    },
    {
      "name": "Object_4",
      "primitives": [
        {
          "attributes": {
            "NORMAL": 17,
            "POSITION": 16,
            "TEXCOORD_0": 18
          },
          "indices": 19,
          "material": 4,
          "mode": 4
        }
      ]
    }
  ],
  "nodes": [
    {
      "children": [
        1
      ],
      "matrix": [
        1.0,
        0.0,
        0.0,
        0.0,
        0.0,
        2.220446049250313e-16,
        -1.0,
        0.0,
        0.0,
        1.0,
        2.220446049250313e-16,
        0.0,
        0.0,
        0.0,
        0.0,
        1.0
      ],
      "name": "Sketchfab_model"
    },
    {
      "children": [
        2
      ],
      "name": "root"
    },
    {
      "children": [
        3
      ],
      "matrix": [
        1.0,
        0.0,
        0.0,
        0.0,
        0.0,
        2.220446049250313e-16,
        1.0,
        0.0,
        0.0,
        -1.0,
        2.220446049250313e-16,
        0.0,
        0.0,
        0.0,
        0.0,
        1.0
      ],
      "name": "GLTF_SceneRootNode"
    },
    {
      "children": [
        4,
        5
      ],
      "name": "Cylinder_1",
      "rotation": [
        0.26082468032836914,
        0.0,
        0.0,
        -0.9653862118721008
      ]
    },
    {
      "mesh": 0,
      "name": "Object_4"
    },
    {
      "children": [
        6,
        7,
        8,
        9
      ],
      "matrix": [
        0.9833518904048745,
        0.18157882773327216,
        0.006941826573054435,
        0.0,
        -0.15194510273450218,
        0.8007157929825746,
        0.5794539710997658,
        0.0,
        0.09965814262849407,
        -0.5708619344353741,
        0.8149754023407954,
        0.0,
        -0.025207296013832092,
        0.001635971711948514,
        0.053482845425605774,
        1.0
      ],
      "name": "Cylinder.007_0"
    },
    {
      "mesh": 1,
      "name": "Object_6"
    },
    {
      "mesh": 2,
      "name": "Object_7"
    },
    {
      "mesh": 3,
      "name": "Object_8"
    },
    {
      "mesh": 4,
      "name": "Object_9"
    }
  ],
  "samplers": [
    {
      "magFilter": 9729,
      "minFilter": 9987,
      "wrapS": 10497,
      "wrapT": 10497
    }
  ],
  "scene": 0,
  "scenes": [
    {
      "name": "Sketchfab_Scene",
      "nodes": [
        0
      ]
    }
  ],
  "textures": [
    {
      "sampler": 0,
      "source": 0
    }
  ]
}
